#N canvas 224 135 859 498 10;
#X obj 153 267 noteout;
#X obj 153 241 makenote;
#X floatatom 153 217 0 0 0 0 - - -;
#X floatatom 180 217 0 0 0 0 - - -;
#X floatatom 208 217 0 0 0 0 - - -;
#X obj 153 97 tgl 15 0 empty empty empty 17 7 0 10 -262144 -1 -1 0
1;
#X obj 153 148 bng 15 250 50 0 empty empty empty 17 7 0 10 -262144
-1 -1;
#X floatatom 213 97 5 0 0 0 - - -;
#X obj 354 3 tgl 15 0 empty empty empty 17 7 0 10 -262144 -1 -1 0 1
;
#X obj 354 23 metro 200;
#X obj 354 48 f;
#X obj 439 59 + 1;
#X floatatom 354 74 0 0 0 0 - - -;
#X obj 440 84 mod 128;
#X msg 33 39 0;
#X msg 33 60 1;
#X msg 33 81 2;
#X msg 32 104 3;
#X msg 32 128 4;
#X obj 153 122 metro 800;
#X obj 390 158 notein;
#X obj 390 207 - 36;
#X floatatom 390 229 0 0 0 0 - - -;
#X obj 390 250 moses 0;
#X floatatom 390 272 0 0 0 0 - - -;
#X floatatom 449 169 5 0 0 0 - - -;
#X floatatom 448 187 5 0 0 0 - - -;
#X obj 390 185 spigot;
#X floatatom 268 329 3 0 0 0 - - -;
#X floatatom 238 329 3 0 0 0 - - -;
#X obj 238 300 ctlin;
#X obj 268 347 == 1;
#X obj 229 367 spigot;
#X floatatom 229 411 5 0 0 0 - - -;
#X obj 229 389 expr 100.0+2000.0*$f1/127.0;
#X obj 254 154 loadbang;
#X msg 208 192 250;
#X msg 178 192 127;
#X msg 267 188 \; pd dsp 1;
#X connect 1 0 0 0;
#X connect 1 1 0 1;
#X connect 2 0 1 0;
#X connect 3 0 1 1;
#X connect 4 0 1 2;
#X connect 5 0 19 0;
#X connect 6 0 2 0;
#X connect 7 0 19 1;
#X connect 8 0 9 0;
#X connect 9 0 10 0;
#X connect 10 0 11 0;
#X connect 10 0 12 0;
#X connect 11 0 13 0;
#X connect 12 0 2 0;
#X connect 13 0 10 1;
#X connect 14 0 2 0;
#X connect 15 0 2 0;
#X connect 16 0 2 0;
#X connect 17 0 2 0;
#X connect 18 0 2 0;
#X connect 19 0 6 0;
#X connect 20 0 27 0;
#X connect 20 1 25 0;
#X connect 20 1 27 1;
#X connect 20 2 26 0;
#X connect 21 0 22 0;
#X connect 22 0 23 0;
#X connect 23 1 24 0;
#X connect 24 0 2 0;
#X connect 27 0 21 0;
#X connect 28 0 31 0;
#X connect 29 0 32 0;
#X connect 30 0 29 0;
#X connect 30 1 28 0;
#X connect 31 0 32 1;
#X connect 32 0 34 0;
#X connect 33 0 4 0;
#X connect 34 0 33 0;
#X connect 35 0 37 0;
#X connect 35 0 36 0;
#X connect 35 0 38 0;
#X connect 36 0 4 0;
#X connect 37 0 3 0;
