#N canvas 336 173 659 477 10;
#X obj 96 262 noteout;
#X obj 96 236 makenote;
#X floatatom 96 121 0 0 0 0 - - -;
#X floatatom 118 208 0 0 0 0 - - -;
#X floatatom 141 76 0 0 0 0 - - -;
#X obj 281 126 loadbang;
#X msg 281 192 1;
#X msg 317 192 500;
#X text 22 120 MIDI pitch;
#X text 50 76 MIDI duration;
#X connect 1 0 0 0;
#X connect 1 1 0 1;
#X connect 2 0 1 0;
#X connect 3 0 1 1;
#X connect 4 0 1 2;
#X connect 5 0 6 0;
#X connect 5 0 7 0;
#X connect 6 0 3 0;
#X connect 7 0 4 0;
